<?xml version="1.0" encoding="UTF-8" standalone="no"?>
<!-- Created with Inkscape (http://www.inkscape.org/) -->

<svg
   width="512mm"
   height="512mm"
   viewBox="0 0 512 512"
   version="1.1"
   id="svg1"
   xml:space="preserve"
   inkscape:version="1.3.2 (091e20ef0f, 2023-11-25)"
   sodipodi:docname="logo.svg"
   xmlns:inkscape="http://www.inkscape.org/namespaces/inkscape"
   xmlns:sodipodi="http://sodipodi.sourceforge.net/DTD/sodipodi-0.dtd"
   xmlns:xlink="http://www.w3.org/1999/xlink"
   xmlns="http://www.w3.org/2000/svg"
   xmlns:svg="http://www.w3.org/2000/svg"><sodipodi:namedview
     id="namedview1"
     pagecolor="#ffffff"
     bordercolor="#666666"
     borderopacity="1.0"
     inkscape:showpageshadow="2"
     inkscape:pageopacity="0.0"
     inkscape:pagecheckerboard="0"
     inkscape:deskcolor="#d1d1d1"
     inkscape:document-units="mm"
     inkscape:zoom="0.46457983"
     inkscape:cx="930.94873"
     inkscape:cy="1001.9807"
     inkscape:window-width="2560"
     inkscape:window-height="1406"
     inkscape:window-x="0"
     inkscape:window-y="0"
     inkscape:window-maximized="0"
     inkscape:current-layer="layer3" /><defs
     id="defs1"><linearGradient
       inkscape:collect="always"
       xlink:href="#linearGradient5562"
       id="linearGradient4328"
       gradientUnits="userSpaceOnUse"
       gradientTransform="translate(70.650339,-1055.1511)"
       x1="200.59668"
       y1="351.41116"
       x2="290.08701"
       y2="506.18814" /><linearGradient
       inkscape:collect="always"
       id="linearGradient5562"><stop
         style="stop-color:#699ad7;stop-opacity:1"
         offset="0"
         id="stop5564" /><stop
         id="stop5566"
         offset="0.24345198"
         style="stop-color:#7eb1dd;stop-opacity:1" /><stop
         style="stop-color:#7ebae4;stop-opacity:1"
         offset="1"
         id="stop5568" /></linearGradient><linearGradient
       inkscape:collect="always"
       xlink:href="#linearGradient5053"
       id="linearGradient4330"
       gradientUnits="userSpaceOnUse"
       gradientTransform="translate(864.69589,-1491.3405)"
       x1="-584.19934"
       y1="782.33563"
       x2="-496.29703"
       y2="937.71399" /><linearGradient
       inkscape:collect="always"
       id="linearGradient5053"><stop
         style="stop-color:#415e9a;stop-opacity:1"
         offset="0"
         id="stop5055" /><stop
         id="stop5057"
         offset="0.23168644"
         style="stop-color:#4a6baf;stop-opacity:1" /><stop
         style="stop-color:#5277c3;stop-opacity:1"
         offset="1"
         id="stop5059" /></linearGradient></defs><g
     inkscape:label="Layer 1"
     inkscape:groupmode="layer"
     id="layer1"><g
       inkscape:groupmode="layer"
       id="layer3"
       inkscape:label="gradient-logo"
       style="display:inline"
       transform="matrix(0.28222223,0,0,0.28222223,112.20556,421.09719)"><g
         id="g1"
         transform="matrix(3.601182,0,0,3.601182,-957.18111,1992.5794)"><path
           sodipodi:nodetypes="cccccccccc"
           inkscape:connector-curvature="0"
           id="path3336-6"
           d="m 309.54892,-710.38827 122.19683,211.67512 -56.15706,0.5268 -32.6236,-56.8692 -32.85645,56.5653 -27.90237,-0.011 -14.29086,-24.6896 46.81047,-80.4901 -33.22946,-57.8257 z"
           style="opacity:1;fill:url(#linearGradient4328);fill-opacity:1;fill-rule:evenodd;stroke:none;stroke-width:3;stroke-linecap:butt;stroke-linejoin:round;stroke-miterlimit:4;stroke-dasharray:none;stroke-opacity:1" /><use
           height="100%"
           width="100%"
           transform="rotate(60,407.11155,-715.78724)"
           id="use3439-6"
           inkscape:transform-center-y="151.59082"
           inkscape:transform-center-x="124.43045"
           xlink:href="#path3336-6"
           y="0"
           x="0" /><use
           height="100%"
           width="100%"
           transform="rotate(-60,407.31177,-715.70016)"
           id="use3445-0"
           inkscape:transform-center-y="75.573958"
           inkscape:transform-center-x="-168.20651"
           xlink:href="#path3336-6"
           y="0"
           x="0" /><use
           height="100%"
           width="100%"
           transform="rotate(180,407.41868,-715.7565)"
           id="use3449-5"
           inkscape:transform-center-y="-139.94592"
           inkscape:transform-center-x="59.669705"
           xlink:href="#path3336-6"
           y="0"
           x="0" /><path
           style="color:#000000;clip-rule:nonzero;display:inline;overflow:visible;visibility:visible;opacity:1;isolation:auto;mix-blend-mode:normal;color-interpolation:sRGB;color-interpolation-filters:linearRGB;solid-color:#000000;solid-opacity:1;fill:url(#linearGradient4330);fill-opacity:1;fill-rule:evenodd;stroke:none;stroke-width:3;stroke-linecap:butt;stroke-linejoin:round;stroke-miterlimit:4;stroke-dasharray:none;stroke-dashoffset:0;stroke-opacity:1;color-rendering:auto;image-rendering:auto;shape-rendering:auto;text-rendering:auto;enable-background:accumulate"
           d="m 309.54892,-710.38827 122.19683,211.67512 -56.15706,0.5268 -32.6236,-56.8692 -32.85645,56.5653 -27.90237,-0.011 -14.29086,-24.6896 46.81047,-80.4901 -33.22946,-57.8256 z"
           id="path4260-0"
           inkscape:connector-curvature="0"
           sodipodi:nodetypes="cccccccccc" /><use
           height="100%"
           width="100%"
           transform="rotate(120,407.33916,-716.08356)"
           id="use4354-5"
           xlink:href="#path4260-0"
           y="0"
           x="0"
           style="display:inline" /><use
           height="100%"
           width="100%"
           transform="rotate(-120,407.28823,-715.86995)"
           id="use4362-2"
           xlink:href="#path4260-0"
           y="0"
           x="0"
           style="display:inline" /></g><g
         id="g2"
         transform="matrix(2.866499,0,0,2.866499,-4918.1204,1288.9603)"
         style="stroke:none;fill:#00112b"><path
           style="display:inline;fill:#00112b;stroke:none;stroke-width:0.9375px;stroke-linecap:butt;stroke-linejoin:miter;stroke-opacity:1"
           d="m 2037.3065,-726.03017 -127.9136,-127.9136 c -11.3828,-9.73244 -21.5787,-9.16069 -34.6063,1.56507 l -123.5402,121.04995 c -26.0887,31.45951 14.4144,68.14671 42.7329,42.73287 l 68.8841,-68.88408 v 196.52176 c 6.7395,48.98456 61.2124,33.1768 59.7227,0 l 0.6632,-196.52176 71.2249,70.88264 c 27.258,21.99977 63.7142,-15.76562 42.8323,-39.43285 z"
           id="path1-6"
           sodipodi:nodetypes="ccccccccccc" /><path
           style="fill:#00112b;stroke:none;stroke-width:0.9375px;stroke-linecap:butt;stroke-linejoin:miter;stroke-opacity:1"
           d="m 1684.4448,-535.72976 v 78.21423 c 0.9149,20.49383 17.9113,66.86825 78.0844,76.56888 l 258.3745,0.74899 c 20.4871,-0.18466 79.9259,-21.12519 80.8988,-83.5793 l 0.689,-72.45236 c 0.4323,-26.35469 -53.7155,-36.76329 -58.3526,0 l -0.6452,69.83189 c 0.593,9.51882 -9.2044,25.42386 -22.1182,25.48817 l -253.6429,0.76147 c -20.5683,0.29485 -24.6251,-22.18732 -25.0424,-27.86309 l -0.3938,-67.71888 c -1.8863,-27.64451 -50.8028,-37.77127 -57.8516,0 z"
           id="path2"
           sodipodi:nodetypes="ccccccccccccc" /></g></g></g></svg>
